<svg width="260" height="64" viewBox="0 0 260 64" fill="none" xmlns="http://www.w3.org/2000/svg">
<path d="M12.33 46.86C10.62 46.86 9.12 46.815 7.83 46.725C6.57 46.635 5.31 46.53 4.05 46.41V15.09C5.46 14.94 6.84 14.835 8.19 14.775C9.54 14.685 11.085 14.64 12.825 14.64C15.525 14.64 17.85 15.06 19.8 15.9C21.78 16.74 23.4 17.895 24.66 19.365C25.95 20.835 26.895 22.545 27.495 24.495C28.125 26.415 28.44 28.485 28.44 30.705C28.44 32.895 28.125 34.965 27.495 36.915C26.865 38.865 25.89 40.59 24.57 42.09C23.28 43.56 21.615 44.73 19.575 45.6C17.565 46.44 15.15 46.86 12.33 46.86ZM12.465 43.125C15.165 43.125 17.37 42.6 19.08 41.55C20.79 40.5 22.05 39.045 22.86 37.185C23.67 35.295 24.075 33.135 24.075 30.705C24.075 28.545 23.67 26.52 22.86 24.63C22.05 22.74 20.805 21.225 19.125 20.085C17.445 18.915 15.3 18.33 12.69 18.33C11.82 18.33 11.025 18.36 10.305 18.42C9.585 18.45 8.925 18.495 8.325 18.555V42.9C8.955 42.99 9.615 43.05 10.305 43.08C10.995 43.11 11.715 43.125 12.465 43.125ZM34.2738 46.5V23.1H38.1888V28.185C38.5788 27.195 39.1038 26.28 39.7638 25.44C40.4238 24.57 41.2488 23.88 42.2388 23.37C43.2288 22.83 44.3838 22.56 45.7038 22.56C46.1538 22.56 46.6038 22.59 47.0538 22.65C47.5038 22.68 47.8788 22.74 48.1788 22.83L46.9638 27.015C46.3938 26.775 45.7188 26.655 44.9388 26.655C43.8288 26.655 42.7638 26.97 41.7438 27.6C40.7538 28.23 39.9288 29.205 39.2688 30.525C38.6388 31.845 38.3238 33.525 38.3238 35.565V46.5H34.2738ZM60.2452 47.04C56.8852 47.04 54.2152 45.975 52.2352 43.845C50.2852 41.685 49.3102 38.67 49.3102 34.8C49.3102 32.46 49.7452 30.375 50.6152 28.545C51.5152 26.685 52.7602 25.23 54.3502 24.18C55.9402 23.1 57.7852 22.56 59.8852 22.56C62.1352 22.56 63.9952 23.055 65.4652 24.045C66.9652 25.005 68.0902 26.31 68.8402 27.96C69.5902 29.61 69.9652 31.425 69.9652 33.405C69.9652 34.455 69.9202 35.475 69.8302 36.465H53.4502C53.7202 38.655 54.4852 40.365 55.7452 41.595C57.0052 42.825 58.6702 43.44 60.7402 43.44C62.0902 43.44 63.3052 43.305 64.3852 43.035C65.4652 42.735 66.5002 42.36 67.4902 41.91L68.4352 45.375C67.3552 45.855 66.1402 46.245 64.7902 46.545C63.4402 46.875 61.9252 47.04 60.2452 47.04ZM53.4052 33.18H66.2302C66.2302 30.9 65.6602 29.145 64.5202 27.915C63.3802 26.685 61.8052 26.07 59.7952 26.07C58.0552 26.07 56.6152 26.685 55.4752 27.915C54.3352 29.115 53.6452 30.87 53.4052 33.18ZM84.3177 47.04C82.3677 47.04 80.5977 46.545 79.0077 45.555C77.4177 44.565 76.1427 43.17 75.1827 41.37C74.2527 39.54 73.7877 37.395 73.7877 34.935C73.7877 32.595 74.2527 30.495 75.1827 28.635C76.1427 26.775 77.4477 25.305 79.0977 24.225C80.7777 23.115 82.6977 22.56 84.8577 22.56C86.2077 22.56 87.4227 22.8 88.5027 23.28C89.6127 23.73 90.5727 24.3 91.3827 24.99V23.1H95.0727V40.83C95.0727 41.97 95.3427 42.72 95.8827 43.08C96.4527 43.41 97.0677 43.575 97.7277 43.575L96.8727 46.725C93.9927 46.725 92.2527 45.555 91.6527 43.215C90.9627 44.175 90.0177 45.06 88.8177 45.87C87.6477 46.65 86.1477 47.04 84.3177 47.04ZM85.2177 43.44C86.3577 43.44 87.4377 43.17 88.4577 42.63C89.4777 42.06 90.3327 41.355 91.0227 40.515V27.96C90.2127 27.39 89.3127 26.94 88.3227 26.61C87.3627 26.25 86.3427 26.07 85.2627 26.07C83.8227 26.07 82.5477 26.445 81.4377 27.195C80.3577 27.915 79.5027 28.935 78.8727 30.255C78.2427 31.545 77.9277 33.06 77.9277 34.8C77.9277 36.48 78.2427 37.98 78.8727 39.3C79.5027 40.59 80.3727 41.61 81.4827 42.36C82.5927 43.08 83.8377 43.44 85.2177 43.44ZM103.136 46.5V23.1H107.051V27.015C107.891 25.755 108.956 24.705 110.246 23.865C111.536 22.995 113.006 22.56 114.656 22.56C116.516 22.56 118.031 23.01 119.201 23.91C120.401 24.81 121.241 26.01 121.721 27.51C122.651 26.13 123.746 24.96 125.006 24C126.296 23.04 127.886 22.56 129.776 22.56C132.326 22.56 134.216 23.37 135.446 24.99C136.706 26.58 137.336 28.665 137.336 31.245V46.5H133.286V31.56C133.286 29.94 132.911 28.635 132.161 27.645C131.411 26.625 130.376 26.115 129.056 26.115C127.706 26.115 126.446 26.625 125.276 27.645C124.136 28.635 123.131 29.805 122.261 31.155V46.5H118.211V31.56C118.211 29.94 117.836 28.635 117.086 27.645C116.336 26.625 115.301 26.115 113.981 26.115C112.661 26.115 111.416 26.61 110.246 27.6C109.076 28.56 108.056 29.7 107.186 31.02V46.5H103.136Z" fill="#3B4346"/>
<path d="M152.728 46.5L141.163 16.125L145.348 14.505L155.248 41.82L165.193 14.64L169.063 16.125L157.543 46.5H152.728ZM173.097 46.5V23.1H177.147V46.5H173.097ZM175.122 19.095C174.342 19.095 173.667 18.81 173.097 18.24C172.557 17.67 172.287 17.01 172.287 16.26C172.287 15.39 172.542 14.7 173.052 14.19C173.562 13.68 174.252 13.425 175.122 13.425C175.902 13.425 176.562 13.71 177.102 14.28C177.672 14.82 177.957 15.48 177.957 16.26C177.957 17.1 177.702 17.79 177.192 18.33C176.682 18.84 175.992 19.095 175.122 19.095ZM191.457 47.04C190.077 47.04 188.832 46.785 187.722 46.275C186.612 45.735 185.727 44.88 185.067 43.71C184.437 42.54 184.122 41.025 184.122 39.165V13.2H188.172V38.76C188.172 40.38 188.502 41.58 189.162 42.36C189.852 43.14 190.797 43.53 191.997 43.53C192.567 43.53 193.122 43.47 193.662 43.35C194.232 43.2 194.712 43.035 195.102 42.855L196.092 46.14C195.552 46.38 194.877 46.59 194.067 46.77C193.287 46.95 192.417 47.04 191.457 47.04ZM206.574 47.04C205.194 47.04 203.949 46.785 202.839 46.275C201.729 45.735 200.844 44.88 200.184 43.71C199.554 42.54 199.239 41.025 199.239 39.165V13.2H203.289V38.76C203.289 40.38 203.619 41.58 204.279 42.36C204.969 43.14 205.914 43.53 207.114 43.53C207.684 43.53 208.239 43.47 208.779 43.35C209.349 43.2 209.829 43.035 210.219 42.855L211.209 46.14C210.669 46.38 209.994 46.59 209.184 46.77C208.404 46.95 207.534 47.04 206.574 47.04ZM223.317 47.04C221.367 47.04 219.597 46.545 218.007 45.555C216.417 44.565 215.142 43.17 214.182 41.37C213.252 39.54 212.787 37.395 212.787 34.935C212.787 32.595 213.252 30.495 214.182 28.635C215.142 26.775 216.447 25.305 218.097 24.225C219.777 23.115 221.697 22.56 223.857 22.56C225.207 22.56 226.422 22.8 227.502 23.28C228.612 23.73 229.572 24.3 230.382 24.99V23.1H234.072V40.83C234.072 41.97 234.342 42.72 234.882 43.08C235.452 43.41 236.067 43.575 236.727 43.575L235.872 46.725C232.992 46.725 231.252 45.555 230.652 43.215C229.962 44.175 229.017 45.06 227.817 45.87C226.647 46.65 225.147 47.04 223.317 47.04ZM224.217 43.44C225.357 43.44 226.437 43.17 227.457 42.63C228.477 42.06 229.332 41.355 230.022 40.515V27.96C229.212 27.39 228.312 26.94 227.322 26.61C226.362 26.25 225.342 26.07 224.262 26.07C222.822 26.07 221.547 26.445 220.437 27.195C219.357 27.915 218.502 28.935 217.872 30.255C217.242 31.545 216.927 33.06 216.927 34.8C216.927 36.48 217.242 37.98 217.872 39.3C218.502 40.59 219.372 41.61 220.482 42.36C221.592 43.08 222.837 43.44 224.217 43.44ZM248.435 47.04C246.665 47.04 245.06 46.815 243.62 46.365C242.21 45.915 241.04 45.33 240.11 44.61L241.82 41.235C242.6 41.895 243.575 42.45 244.745 42.9C245.945 43.32 247.22 43.53 248.57 43.53C250.25 43.53 251.51 43.26 252.35 42.72C253.22 42.15 253.655 41.43 253.655 40.56C253.655 39.93 253.49 39.375 253.16 38.895C252.86 38.415 252.29 37.95 251.45 37.5C250.61 37.02 249.395 36.51 247.805 35.97C245.615 35.22 243.965 34.335 242.855 33.315C241.775 32.265 241.235 30.825 241.235 28.995C241.235 27.195 242.015 25.68 243.575 24.45C245.165 23.19 247.355 22.56 250.145 22.56C251.645 22.56 252.98 22.725 254.15 23.055C255.32 23.355 256.37 23.745 257.3 24.225L256.175 27.555C255.365 27.075 254.435 26.685 253.385 26.385C252.365 26.085 251.225 25.935 249.965 25.935C248.405 25.935 247.22 26.25 246.41 26.88C245.6 27.51 245.195 28.2 245.195 28.95C245.195 29.67 245.51 30.285 246.14 30.795C246.77 31.305 248 31.86 249.83 32.46C252.8 33.45 254.87 34.545 256.04 35.745C257.21 36.945 257.795 38.445 257.795 40.245C257.795 42.345 256.94 44.01 255.23 45.24C253.55 46.44 251.285 47.04 248.435 47.04Z" fill="#D27125"/>
</svg>
